<svg width="128" height="128" viewBox="0 0 128 128" fill="none" xmlns="http://www.w3.org/2000/svg">
  <!-- Outer wavy badge -->
  <path d="
    M64 18
    C70 12, 80 12, 86 18
    C92 24, 102 24, 108 30
    C114 36, 114 46, 108 52
    C102 58, 102 68, 108 74
    C114 80, 114 90, 108 96
    C102 102, 92 102, 86 108
    C80 114, 70 114, 64 108
    C58 114, 48 114, 42 108
    C36 102, 26 102, 20 96
    C14 90, 14 80, 20 74
    C26 68, 26 58, 20 52
    C14 46, 14 36, 20 30
    C26 24, 36 24, 42 18
    C48 12, 58 12, 64 18
    Z"
    stroke="#E5E7EB"
    stroke-width="4"
    stroke-linejoin="round"
  />

  <!-- Inner star -->
  <path d="
    M64 42
    L69 53
    L81 55
    L72 64
    L74 76
    L64 70
    L54 76
    L56 64
    L47 55
    L59 53
    Z"
    stroke="#E5E7EB"
    stroke-width="4"
    stroke-linejoin="round"
  />
</svg>